<?xml version="1.0" encoding="UTF-8"?>
<svg version="1.0" viewBox="0 0 275.52 251.8" xmlns="http://www.w3.org/2000/svg">
 <g transform="matrix(.98414 .17739 -.17739 .98414 -23.531 -52.381)">
  <g transform="matrix(.85106 -.14221 .15429 1.0572 5.8706 28.189)">
   <g transform="translate(-329.65 -11.413)" fill-rule="evenodd">
    <path d="m681.78 180.27c-4.05-1.8-7.54-3.59-16.78-5.38l-39.611-35.583 7.3852-4.0283c-17.92-21.38-27.42-42.467-75.86-57.064-25.74-29.562-86.19-79.243-76.87-13.428-34.98-18.825-73.74-26.836-114.5-20.184-1.1466 9.1024 26.803 32.694 36.254 52.367-13.877 3.3516-29.717 6.8146-40.926 18.17 13.353 1.4183 25.352 6.2195 36.926 12.085-21.214 11.965-23.644 20.8-29.541 30.212 20.275 0.72601 45.544 0.58344 46.325 4.6996-27.15 32.768-23.959 39.863-29.541 54.382 17.515-8.9686 35.852-18.691 42.968-18.127-3.2115 7.206-4.8246 16.543-2.6855 30.883 12.974-13.306 27.416-27.197 54.382-30.883l-16.113 9.0636c7.7083 12.738 17.482 18.572 36.254 16.449l-4.364 11.413c23.549-21.03 43.87-19.202 56.191-14.675 15.578 8.0404 26.108 24.008 34.478 36.854 19.062 17.439 31.224 4.1292 42.6-4.0522l-0.67138-4.6996c8.8771-6.4036 7.9738-17.559 7.3852-22.155-3.5807 3.7784-7.1614 12.558-10.742 10.742-0.1417-0.99975 0.61329-5.5862 1.3428-10.071-2.2379 2.0476-4.0011 4.0009-6.7138 4.6996-9.7811-9.5268-18.03-18.766-41.625-30.883-0.80979-5.5948 0.30033-11.19 12.756-16.784 9.2981-3.39 28.843 9.1596 45.654 17.456-0.33493 5.8186-1.2372 11.637-3.3569 17.456 6.0103-2.3663 10.949-9.0182 16.113-14.77l6.7138-1.3428-6.0424 10.071c1.8919 0.21702 9.5825-1.9433 19.47-16.113 4.6342-4.3718 12.108 0.34206 12.756-16.784z" fill="#2b1100" stroke="#2b1100" stroke-width="1px"/>
    <g transform="translate(326.96 5.371)" stroke-width="1px">
     <path d="m135.95 183.62c21.307-12.588 46.448-11.374 72.173-8.0565l8.3922-5.371-5.371 12.756c63.898-36.815 97.506 20.364 121.86 4.6996-13.636-19.738-35.522-35.185-71.502-43.304 2.3473 3.4669 5.4259 7.4823 4.364 8.3922-41.03-14.344-70.414-4.7686-83.922 5.0353l10.406 10.742c-30.547 0.14008-47.291 6.0315-56.396 15.106z" fill="#ececec" stroke="#ececec"/>
     <path d="m281.64 236.66c4.1614-1.6964 11.529-7.1551 15.662-11.142-4.2696 10.959-7.2513 13.547-10.291 16.513-2.9103-0.78171-5.0589-2.4662-5.371-5.371z" fill="#f2f2f2" stroke="#ececec"/>
     <path d="m299.18 235.29c0.42439 1.0071-1.0652 1.748 1.2613 4.8914 5.4836-4.4587 6.4082-9.6453 7.0902-14.291-3.2874 5.2101-4.3232 6.6188-8.3515 9.3993z" fill="#f2f2f2" stroke="#f2f2f2" stroke-linecap="round" stroke-linejoin="round"/>
     <path d="m318.9 198.39c-3.7424 6.2296-6.913 9.028-10.239 12.756 1.5867-3.6976 2.811-8.8152 3.189-13.763 2.3498 1.1806 4.6996 1.1465 7.0495 1.0071z" fill="#f2f2f2" stroke="#f2f2f2"/>
     <path d="m337.7 194.7c-3.5809 4.4698-7.3844 8.4944-11.909 11.078 1.8852-2.7974 3.5556-5.5948 3.852-8.3922 3.8906-0.89517 5.613-1.7903 8.0565-2.6855z" fill="#f2f2f2" stroke="#f2f2f2"/>
     <path d="m291.71 248.41c-31.659 21.295-28.743-40.79-67.809-44.311 38.453-8.3425 36.907 46.563 67.809 44.311z" fill="#ececec" stroke="#f2f2f2"/>
    </g>
    <path transform="matrix(.93364 .3582 -.3582 .93364 85.529 -196.23)" d="m582.76 140.99c0 4.2641-6.4626 7.7208-14.435 7.7208-7.972 0-14.435-3.4567-14.435-7.7208s6.4626-7.7208 14.435-7.7208c7.972 0 14.435 3.4567 14.435 7.7208z" fill="#f2f2f2" stroke="#f2f2f2" stroke-linecap="round" stroke-linejoin="round" stroke-width="1.013"/>
    <path d="m403.61 64.706c17.87 5.2878 31.129 10.107 37.35 14.212l-9.8358 2.5117c20.077 5.9074 29.077 9.6071 46.293 18.362-6.5694-1.087-13.542-1.9722-22.616-1.8071 12.81 2.672 18.276 6.813 25.063 10.69-27.369-4.2413-30.157-1.3159-43.036-1.3324 23.546 1.2472 40.24 1.5743 66.774 11.991l-18.928-14.656c7.7203-0.16254 15.92 1.8324 24.158 3.9971-12.693-8.0887-35.917-20.984-60.157-27.092l9.1029-1.7765c-25.29-10.712-38.46-13.754-54.16-15.092z" fill="#f2f2f2" stroke="#f2f2f2" stroke-width=".96737px"/>
    <path transform="matrix(1.2464 .34986 -.40715 1.3929 403.62 -206.86)" d="m202.76 199.06c0 2.2248-3.1562 4.0283-7.0495 4.0283s-7.0495-1.8035-7.0495-4.0283 3.1562-4.0283 7.0495-4.0283 7.0495 1.8035 7.0495 4.0283z" stroke="#000" stroke-linecap="round" stroke-linejoin="round" stroke-width="1.013"/>
    <path d="m388.78 54.688c-1.2512-0.0032-2.5008 0.0106-3.75 0.03125 18.008 19.47 29.541 36.795 36.688 52.688l-13.906-5.3438-18.031 8.7188 28.219 12.75c24.559-6.4453 45.918-2.6771 66.906 2.3438-57.759-4.6697-68.352 9.1092-84.25 20.812 14.726-2.2503 28.085-1.328 40.094 2.6875-18.366 19.336-12.981 24.871-17.656 36.25 12.485-12.112 26.496-23.706 55.031-30.531-13.652 9.1751-23.718 18.356-29.219 27.531 25.128-13.793 36.314-11.713 50.281-12.781l-10.875-4.6875c17.212-9.757 36.957-17.497 63.188-20.125 0.9837-2.6854-0.64214-5.3771-5.0938-8.0625-5.0647-2.8126-12.66-4.3775-19.375-6.375 20.091-3.1903 40.121-5.5137 58.438 14.094 14.159 0.39976 50.566 25.692 76.781 39.594l5.4375-2.3438-43.156-36.906h-5.7812l6.125-9.75c-25.197-33.846-59.375-58.809-120.59-57.062 13.9 8.4711 26.501 17.171 35 26.531l-39.11-3.72 8.5-4.03c-41.36-30.533-81.12-42.213-119.91-42.312zm12.969 8.625c14.762 3.715 16.123 0.7619 51.5 14.688l-11.656 2.875c25.21 6.0528 41.377 16.415 59 26.094l-23.125-3.3125 20.406 13.75c-21.158-5.387-42.33-11.002-62.938-9l10.75-6.6562-15.375-6.6562 14.25-1.875c-5.4895-3.7979-12.467-7.6084-21.75-11.406l5.38-3.317c-3.03-5.064-16.77-10.124-26.44-15.188z" fill="#ea5411" stroke="#ea5411" stroke-width="1.006px"/>
    <path d="m678.87 181.98-0.47473 4.7474-12.818 3.3232 13.293-8.0705z" fill="#f2f2f2" stroke="#f2f2f2" stroke-width="1px"/>
    <path d="m527.33 71.082c3.662 0.52659 9.2596 0.54831 14.574 2.4074-8.4857-12.159-26.587-25.714-36.844-31.121 8.1568 7.3713 16.118 15.883 22.271 28.713z" fill="#e95412" stroke="#e95412" stroke-width="1px"/>
   </g>
  </g>
  <path transform="matrix(.37263 -.12372 .2105 .48981 111.03 53.671)" d="m202.76 199.06c0 2.2248-3.1562 4.0283-7.0495 4.0283s-7.0495-1.8035-7.0495-4.0283 3.1562-4.0283 7.0495-4.0283 7.0495 1.8035 7.0495 4.0283z" fill="#e6e6e6" fill-rule="evenodd" stroke="#e6e6e6" stroke-linecap="round" stroke-linejoin="round" stroke-width="1.013"/>
 </g>
 <path transform="translate(-14.86 -4.8952)" d="m264.9 174.62a1.8989 1.6616 0 1 1 -3.7979 0 1.8989 1.6616 0 1 1 3.7979 0z" fill="#333" opacity=".978" stroke="#333" stroke-linecap="round" stroke-linejoin="round" stroke-width=".2"/>
 <path transform="translate(-23.076 -4.4572)" d="m264.9 174.62a1.8989 1.6616 0 1 1 -3.7979 0 1.8989 1.6616 0 1 1 3.7979 0z" fill="#333" opacity=".978" stroke="#333" stroke-linecap="round" stroke-linejoin="round" stroke-width=".2"/>
 <path transform="translate(-20.055 -11.842)" d="m264.9 174.62a1.8989 1.6616 0 1 1 -3.7979 0 1.8989 1.6616 0 1 1 3.7979 0z" fill="#333" opacity=".978" stroke="#333" stroke-linecap="round" stroke-linejoin="round" stroke-width=".2"/>
 <path transform="translate(-30.461 -9.8282)" d="m264.9 174.62a1.8989 1.6616 0 1 1 -3.7979 0 1.8989 1.6616 0 1 1 3.7979 0z" fill="#333" opacity=".978" stroke="#333" stroke-linecap="round" stroke-linejoin="round" stroke-width=".2"/>
 <path transform="translate(-27.104 -18.724)" d="m264.9 174.62a1.8989 1.6616 0 1 1 -3.7979 0 1.8989 1.6616 0 1 1 3.7979 0z" fill="#333" opacity=".978" stroke="#333" stroke-linecap="round" stroke-linejoin="round" stroke-width=".2"/>
 <path transform="translate(-37.846 -14.696)" d="m264.9 174.62a1.8989 1.6616 0 1 1 -3.7979 0 1.8989 1.6616 0 1 1 3.7979 0z" fill="#333" opacity=".978" stroke="#333" stroke-linecap="round" stroke-linejoin="round" stroke-width=".2"/>
 <path transform="translate(-35.496 -24.599)" d="m264.9 174.62a1.8989 1.6616 0 1 1 -3.7979 0 1.8989 1.6616 0 1 1 3.7979 0z" fill="#333" opacity=".978" stroke="#333" stroke-linecap="round" stroke-linejoin="round" stroke-width=".2"/>
 <path transform="translate(-45.735 -18.892)" d="m264.9 174.62a1.8989 1.6616 0 1 1 -3.7979 0 1.8989 1.6616 0 1 1 3.7979 0z" fill="#333" opacity=".978" stroke="#333" stroke-linecap="round" stroke-linejoin="round" stroke-width=".2"/>
 <path transform="translate(-44.224 -28.291)" d="m264.9 174.62a1.8989 1.6616 0 1 1 -3.7979 0 1.8989 1.6616 0 1 1 3.7979 0z" fill="#333" opacity=".978" stroke="#333" stroke-linecap="round" stroke-linejoin="round" stroke-width=".2"/>
</svg>
